<mxfile host="app.diagrams.net" modified="2023-11-25T10:33:42.810Z" agent="Mozilla/5.0 (Windows NT 10.0; Win64; x64) AppleWebKit/537.36 (KHTML, like Gecko) Chrome/119.0.0.0 Safari/537.36 Edg/119.0.0.0" version="22.1.4" etag="Tn62FlSxupvwCPwWbBT0" type="github">
  <diagram name="PÃ¡gina-1" id="omb_oSkVbOJWCaHkA78N">
    <mxGraphModel>
      <root>
        <mxCell id="0" />
        <mxCell id="1" parent="0" />
      </root>
    </mxGraphModel>
  </diagram>
</mxfile>
